<svg xmlns="http://www.w3.org/2000/svg" viewBox="0 0 512 512">
  <rect width="512" height="512" rx="92" fill="#2e7d54"/>
  <circle cx="156" cy="150" r="58" fill="#f0c84b"/>
  <path fill="#d9f0ee" d="M134 312c0-54 44-98 98-98 38 0 72 22 88 55 10-4 21-7 33-7 47 0 85 38 85 85s-38 85-85 85H153c-43 0-79-35-79-79 0-34 22-64 60-41z"/>
  <path fill="#ffffff" d="M107 356h293v36H107z"/>
  <path fill="#202124" opacity=".2" d="M134 312c0-54 44-98 98-98 38 0 72 22 88 55 10-4 21-7 33-7 47 0 85 38 85 85 0 9-1 17-4 25-11-35-43-60-81-60-12 0-23 3-33 7-16-33-50-55-88-55-43 0-79 28-92 67-14-4-27-2-37 4 7-14 17-25 31-23z"/>
</svg>
